PathFileType	4	(X/Y/Z)	C:/Users/opensim2020/Desktop/walking_exp_matlab/subject03_walking10_straight_01.trc																																																																																																																																					
DataRate	CameraRate	NumFrames	NumMarkers	Units	OrigDataRate	OrigDataStartFrame	OrigNumFrames																																																																																																																																	
100	100	5	45	mm	100	778	477																																																																																																																																	
Frame#	Time	LFHD			RFHD			LBHD			RBHD			C7			T10			CLAV			STRN			RBAK			LSHO			LUPA			LELB			LFRM			LWRA			LWRB			LFIN			RSHO			RUPA			RELB			RFRM			RWRA			RWRB			RFIN			LASI			RASI			LPSI			RPSI			LTHI			LKNE			LTIB			LANK			LHEE			LTOE			RTHI			RKNE			RTIB			RANK			RHEE			RTOE			*39			*40			*41			*42			*43			*44		
		X1	Y1	Z1	X2	Y2	Z2	X3	Y3	Z3	X4	Y4	Z4	X5	Y5	Z5	X6	Y6	Z6	X7	Y7	Z7	X8	Y8	Z8	X9	Y9	Z9	X10	Y10	Z10	X11	Y11	Z11	X12	Y12	Z12	X13	Y13	Z13	X14	Y14	Z14	X15	Y15	Z15	X16	Y16	Z16	X17	Y17	Z17	X18	Y18	Z18	X19	Y19	Z19	X20	Y20	Z20	X21	Y21	Z21	X22	Y22	Z22	X23	Y23	Z23	X24	Y24	Z24	X25	Y25	Z25	X26	Y26	Z26	X27	Y27	Z27	X28	Y28	Z28	X29	Y29	Z29	X30	Y30	Z30	X31	Y31	Z31	X32	Y32	Z32	X33	Y33	Z33	X34	Y34	Z34	X35	Y35	Z35	X36	Y36	Z36	X37	Y37	Z37	X38	Y38	Z38	X39	Y39	Z39	X40	Y40	Z40	X41	Y41	Z41	X42	Y42	Z42	X43	Y43	Z43	X44	Y44	Z44	X45	Y45	Z45
																																																																																																																																								
120	1.19	-857.42444	1628.27295	1335.36133	-865.53577	1638.30115	1468.24561	-971.41113	1554.92029	1337.88574	-975.1922	1565.86548	1468.55457	-979.35382	1420.04773	1402.68713	-1028.00549	1112.34106	1416.12769	-859.04333	1339.77417	1408.69019	-825.41962	1171.30835	1411.328	-1042.04553	1256.73206	1507.17651	-900.0683	1371.92798	1250.3811	-930.87946	1172.72607	1190.26379	-939.35016	1049.62256	1182.42236	-926.24988	919.93018	1182.18884	-915.05377	800.08252	1213.46655	-944.52002	807.74811	1165.76282	-937.71307	722.76953	1177.13318	-903.88367	1372.93445	1566.1123	-900.66754	1152.6073	1642.63696	-880.35864	1041.66089	1656.77466	-854.35675	907.18701	1659.22119	-816.79303	814.65857	1623.90173	-848.12213	807.06409	1667.71887	-820.5575	737.56476	1656.95532	-867.42926	942.73956	1306.11096	-874.6911	936.54401	1542.27979	-1030.26709	971.71899	1348.93848	-1031.5647	978.25494	1498.89807	-897.98376	643.53998	1265.09583	-862.98212	470.35052	1308.90833	-877.09662	277.79419	1304.29749	-849.883	68.8894	1342.37097	-888.24261	34.31863	1378.95239	-696.75934	36.9874	1370.76868	-967.43494	645.76929	1583.17236	-981.12811	465.57458	1555.77551	-1107.47302	315.62939	1559.07397	-1230.50916	136.7668	1513.61646	-1282.57202	128.50406	1461.06116	-1125.16394	36.72215	1494.99451	-955.07471	1669.74646	1381.06189	NaN	NaN	NaN	NaN	NaN	NaN	NaN	NaN	NaN	NaN	NaN	NaN	NaN	NaN	NaN
121	1.2	-851.1076	1628.79395	1334.12378	-859.61536	1638.97412	1467.03308	-964.98462	1555.32129	1336.45874	-969.20728	1566.47583	1467.08777	-973.13293	1420.61169	1401.32617	-1021.65363	1112.87842	1414.49365	-852.77118	1340.34766	1407.66211	-818.82806	1172.03271	1410.31738	-1035.73865	1257.11133	1505.72375	-893.23358	1372.53931	1249.35767	-922.66254	1173.4707	1188.72192	-930.74921	1050.32251	1180.78479	-916.39856	920.72101	1180.62256	-903.1369	800.86224	1210.70398	-933.61707	808.33044	1164.1554	-926.13593	723.36035	1175.61816	-897.92383	1373.50195	1564.88025	-895.19867	1153.21375	1641.58362	-875.57013	1042.23389	1656.0957	-850.42902	907.51459	1659.01172	-813.31732	814.78406	1624.25769	-844.93823	807.41412	1667.93298	-818.0058	737.55316	1657.33191	-860.89801	942.93158	1304.64636	-868.53473	937.20917	1540.90015	-1023.72101	972.24762	1347.21716	-1025.36316	978.81433	1497.25293	-893.24323	643.87396	1263.67786	-859.84174	470.2085	1307.97192	-875.0719	277.93707	1303.74084	-849.73413	68.91265	1342.43628	-888.2193	34.36998	1378.9325	-696.5332	36.78696	1371.04785	-959.62476	646.30096	1584.04968	-969.65308	465.22989	1557.09241	-1098.60303	317.57382	1559.91602	-1225.04846	141.28969	1514.35693	-1276.95837	135.16142	1461.52844	-1124.12927	37.06487	1495.0675	-948.90466	1670.2439	1379.49353	NaN	NaN	NaN	NaN	NaN	NaN	NaN	NaN	NaN	NaN	NaN	NaN	NaN	NaN	NaN
122	1.21	-844.80896	1629.14136	1332.92273	-853.69525	1639.47656	1465.87488	-958.61456	1555.60339	1335.10303	-963.24756	1566.89758	1465.6969	-966.90918	1421.02551	1400.07141	-1015.32776	1113.24243	1412.7594	-846.62231	1340.8009	1406.61609	-812.6062	1172.43579	1409.18066	-1029.55518	1257.39185	1504.24817	-886.47229	1373.12744	1248.32629	-914.54706	1173.87988	1187.19153	-922.01929	1050.79382	1179.16101	-906.3999	921.41217	1179.00244	-891.44006	802.08075	1208.96619	-922.521	808.85193	1162.53247	-914.20691	723.91772	1174.06067	-892.08258	1373.88464	1563.67932	-889.79675	1153.63782	1640.56018	-870.85358	1042.60791	1655.32385	-846.38562	907.76666	1658.81909	-809.79956	814.50934	1624.49927	-841.62189	807.66504	1668.19629	-815.32056	737.51526	1657.88025	-854.89868	943.05334	1303.28247	-862.48016	937.75165	1539.56213	-1017.18396	972.78943	1345.63855	-1019.33228	979.12146	1495.64172	-888.63049	644.25653	1262.41321	-856.44348	470.3696	1307.06641	-872.72925	277.93137	1303.48975	-849.56982	68.93549	1342.49512	-888.14966	34.34477	1378.95325	-696.34656	36.62262	1371.21338	-950.11212	646.07117	1583.63586	-957.72455	464.73199	1558.42126	-1088.91931	319.34229	1560.77905	-1218.9718	146.02556	1515.2113	-1270.61133	141.89252	1461.99878	-1122.95654	37.4186	1494.90417	-942.74036	1670.58057	1377.99304	NaN	NaN	NaN	NaN	NaN	NaN	NaN	NaN	NaN	NaN	NaN	NaN	NaN	NaN	NaN
123	1.22	-838.56708	1629.38257	1331.76563	-847.89948	1639.88879	1464.73743	-952.37769	1555.76587	1333.74866	-957.2597	1567.2688	1464.19238	-960.62378	1421.1958	1398.77991	-1009.20258	1113.53796	1411.11755	-840.4353	1341.20142	1405.67847	-806.42548	1172.61084	1408.15588	-1023.56494	1257.54468	1502.74719	-879.8103	1373.5127	1247.33777	-906.57458	1174.44702	1185.99805	-913.35455	1051.22009	1177.5376	-896.34033	921.89539	1177.32898	-880.01526	803.09064	1207.4917	-911.14563	809.28833	1160.83826	-901.8808	724.41925	1172.44299	-886.01526	1374.05188	1562.67395	-884.45837	1153.86938	1639.59351	-865.95953	1042.84839	1654.69177	-842.27582	907.89471	1658.66736	-805.96484	814.3819	1624.88281	-838.0191	807.74023	1668.38171	-812.40753	737.28314	1658.16235	-848.71533	943.3125	1301.89966	-856.66498	938.08508	1538.27454	-1011.03174	973.48938	1344.19897	-1013.48712	979.18182	1494.07251	-883.89899	644.63904	1261.26514	-852.87518	470.76895	1306.26001	-870.94611	278.11591	1302.57056	-849.45331	68.92268	1342.55945	-888.10132	34.35585	1378.90796	-696.12952	36.45383	1371.29944	-941.06702	645.82867	1583.59924	-945.43774	464.14874	1559.68628	-1078.57275	320.98935	1561.63843	-1211.94116	150.51775	1515.90894	-1263.47522	148.69086	1462.62695	-1121.94714	37.26146	1494.08423	-936.6571	1670.84827	1376.5188	NaN	NaN	NaN	NaN	NaN	NaN	NaN	NaN	NaN	NaN	NaN	NaN	NaN	NaN	NaN
124	1.23	-832.37073	1629.46069	1330.76648	-842.11945	1640.17261	1463.64172	-946.11694	1555.84937	1332.51855	-951.5871	1567.5874	1463.04675	-954.77307	1421.4729	1397.59338	-1003.1662	1113.73535	1409.56104	-834.47308	1341.34998	1404.72424	-799.92804	1173.29932	1407.52002	-1017.73651	1257.52234	1501.18433	-873.27045	1373.79468	1246.349	-898.76013	1174.7605	1184.56262	-904.44678	1051.46069	1175.90747	-885.93799	922.3938	1175.7738	-868.53052	803.85114	1205.91016	-899.4588	809.56641	1159.23792	-888.90625	724.81555	1170.52625	-880.56934	1374.14819	1561.56238	-879.2644	1153.95618	1638.67676	-860.98907	1042.89319	1654.1167	-838.05035	907.8678	1658.50317	-802.11981	814.06287	1625.08752	-834.36285	807.7215	1668.61609	-809.15601	737.07263	1658.67578	-842.17181	943.79266	1300.63904	-850.88617	938.27179	1537.04956	-1004.90814	974.02557	1342.76025	-1007.77301	979.12573	1492.62024	-879.18872	645.0528	1260.13586	-849.46057	470.71939	1305.34521	-868.8653	278.08337	1302.23755	-849.34491	68.91969	1342.64697	-888.09418	34.39339	1378.90454	-695.99725	36.29501	1371.41492	-931.86438	645.36554	1583.72876	-932.91577	463.58569	1560.85242	-1067.7384	322.50241	1562.49878	-1204.44373	154.96596	1516.79553	-1255.64856	155.42792	1463.33423	-1120.44006	37.73055	1493.95789	-930.59369	1670.93738	1375.20972	NaN	NaN	NaN	NaN	NaN	NaN	NaN	NaN	NaN	NaN	NaN	NaN	NaN	NaN	NaN
